<?xml version="1.0" encoding="UTF-8"?>
<svg width="842px" height="100px" viewBox="0 0 842 100" version="1.1" xmlns="http://www.w3.org/2000/svg" xmlns:xlink="http://www.w3.org/1999/xlink">
    <!-- Generator: Sketch 53 (72520) - https://sketchapp.com -->
    <title>Evercity logo</title>
    <desc>Created with Sketch.</desc>
    <g id="Evercity-landing" stroke="none" stroke-width="1" fill="none" fill-rule="evenodd">
        <g id="Evercity---Desktop" transform="translate(-307.000000, -446.000000)" fill="#ffffff">
            <g id="HOME" transform="translate(0.000000, -32.000000)">
                <path d="M307,478.75 L402.602941,478.75 L386.284568,498.270412 L326.120588,498.270412 L326.120588,512.9214 L393.046132,512.9214 L377.173883,532.448932 L326.120588,532.448932 L326.120588,547.092801 L397.821051,547.092801 L397.821051,566.627451 L307,566.627451 L307,478.75 Z M489.439798,478.75 L510.759804,478.75 L463.920503,577.25 L417.088235,478.75 L438.408242,478.75 L463.920503,531.290874 L489.439798,478.75 Z M530.073529,478.75 L625.676471,478.75 L609.756587,498.270412 L549.192724,498.270412 L549.192724,512.9214 L616.106418,512.9214 L600.235326,532.448932 L549.192724,532.448932 L549.192724,547.092801 L620.887959,547.092801 L620.887959,566.627451 L530.073529,566.627451 L530.073529,478.75 Z M806.985811,478.75 L878.686275,478.75 L862.6537,498.271994 L806.985811,498.271994 C803.800208,498.271994 802.203922,499.909506 802.203922,503.163172 L802.203922,542.221399 C802.203922,545.467945 803.800208,547.098337 806.985811,547.098337 L862.667641,547.098337 L878.686275,566.627451 L806.985811,566.627451 C791.050826,566.627451 783.083333,558.482607 783.083333,542.221399 L783.083333,503.163172 C783.083333,486.887724 791.050826,478.75 806.985811,478.75 Z M899.931373,566.627451 L899.931373,478.75 L919.245098,478.75 L919.245098,566.627451 L899.931373,566.627451 Z M1046.71569,478.75 L1030.61467,498.271994 L1002.78653,498.271994 L1002.78653,566.627451 L983.473766,566.627451 L983.473766,498.271994 L947.25,498.271994 L947.25,478.75 L1046.71569,478.75 Z M732.342804,531.425205 L752.181373,566.627451 L730.140067,566.627451 L710.880065,532.457634 L685.262799,532.457634 L685.262799,512.919817 L723.503976,512.919817 C726.682608,512.919817 728.278895,511.296413 728.278895,508.035363 L728.278895,503.15803 C728.278895,499.9041 726.682608,498.273576 723.503976,498.273576 L675.69902,498.273576 L675.69902,566.627451 L656.578431,566.627451 L656.578431,478.75 L723.503976,478.75 C739.43199,478.75 747.399483,486.881263 747.399483,503.15803 L747.399483,508.035363 C747.399483,520.958518 742.38059,528.755132 732.342804,531.425205 Z M1109.98514,526.352677 L1109.98514,577.25 L1090.83982,554.074361 L1090.83982,526.303187 L1051.54412,478.75 L1076.22433,478.75 L1100.41597,508.316968 L1124.43311,478.75 L1149.07843,478.75 L1109.98514,526.352677 Z" id="Evercity-logo"></path>
            </g>
        </g>
    </g>
</svg>
